<?xml version="1.0" encoding="UTF-8" standalone="no"?>
<!DOCTYPE svg PUBLIC "-//W3C//DTD SVG 1.1//EN"
 "http://www.w3.org/Graphics/SVG/1.1/DTD/svg11.dtd">
<!-- Generated by graphviz version 2.43.0 (0)
 -->
<!-- Title: scrdr_tagger Pages: 1 -->
<svg width="1266pt" height="671pt"
 viewBox="0.00 0.00 1265.60 671.20" xmlns="http://www.w3.org/2000/svg" xmlns:xlink="http://www.w3.org/1999/xlink">
<g id="graph0" class="graph" transform="scale(1 1) rotate(0) translate(28.8 649.6)">
<title>scrdr_tagger</title>
<polygon fill="white" stroke="transparent" points="-28.8,21.6 -28.8,-649.6 1236.8,-649.6 1236.8,21.6 -28.8,21.6"/>
<text text-anchor="middle" x="604" y="-615.2" font-family="Helvetica,sans-Serif" font-size="11.00">scrdr_tagger.py &#160;— &#160;SCRDR&#45;based POS / NLP Sequence Tagger</text>
<g id="clust1" class="cluster">
<title>cluster_train</title>
<path fill="#f3f0fd" stroke="#7f77dd" d="M20,-8C20,-8 254,-8 254,-8 260,-8 266,-14 266,-20 266,-20 266,-578 266,-578 266,-584 260,-590 254,-590 254,-590 20,-590 20,-590 14,-590 8,-584 8,-578 8,-578 8,-20 8,-20 8,-14 14,-8 20,-8"/>
<text text-anchor="middle" x="137" y="-578" font-family="Helvetica,sans-Serif" font-weight="bold" font-size="10.00" fill="#3c3489">TRAINING &#160;(python scrdr_tagger.py train)</text>
</g>
<g id="clust2" class="cluster">
<title>cluster_infer</title>
<path fill="#ebf8f3" stroke="#1d9e75" d="M286,-94C286,-94 549,-94 549,-94 555,-94 561,-100 561,-106 561,-106 561,-578 561,-578 561,-584 555,-590 549,-590 549,-590 286,-590 286,-590 280,-590 274,-584 274,-578 274,-578 274,-106 274,-106 274,-100 280,-94 286,-94"/>
<text text-anchor="middle" x="417.5" y="-578" font-family="Helvetica,sans-Serif" font-weight="bold" font-size="10.00" fill="#0f6e56">INFERENCE &#160;(python scrdr_tagger.py &#160;test | tag)</text>
</g>
<g id="clust3" class="cluster">
<title>cluster_core</title>
<path fill="#fef0eb" stroke="#d85a30" d="M587,-509C587,-509 1188,-509 1188,-509 1194,-509 1200,-515 1200,-521 1200,-521 1200,-588 1200,-588 1200,-594 1194,-600 1188,-600 1188,-600 587,-600 587,-600 581,-600 575,-594 575,-588 575,-588 575,-521 575,-521 575,-515 581,-509 587,-509"/>
<text text-anchor="middle" x="887.5" y="-588" font-family="Helvetica,sans-Serif" font-weight="bold" font-size="10.00" fill="#993c1d">SHARED CORE &#160;(used by both pipelines)</text>
</g>
<!-- T1 -->
<g id="node1" class="node">
<title>T1</title>
<path fill="#e8e4fa" stroke="#7f77dd" d="M221.5,-563C221.5,-563 52.5,-563 52.5,-563 46.5,-563 40.5,-557 40.5,-551 40.5,-551 40.5,-539 40.5,-539 40.5,-533 46.5,-527 52.5,-527 52.5,-527 221.5,-527 221.5,-527 227.5,-527 233.5,-533 233.5,-539 233.5,-539 233.5,-551 233.5,-551 233.5,-557 227.5,-563 221.5,-563"/>
<text text-anchor="middle" x="137" y="-548" font-family="Helvetica,sans-Serif" font-size="10.00">① Tagged corpus</text>
<text text-anchor="middle" x="137" y="-537" font-family="Helvetica,sans-Serif" font-size="10.00">word/TAG &#160;· &#160;one sentence per line</text>
</g>
<!-- T2 -->
<g id="node2" class="node">
<title>T2</title>
<path fill="#cecbf6" stroke="#534ab7" d="M217,-476C217,-476 57,-476 57,-476 51,-476 45,-470 45,-464 45,-464 45,-443 45,-443 45,-437 51,-431 57,-431 57,-431 217,-431 217,-431 223,-431 229,-437 229,-443 229,-443 229,-464 229,-464 229,-470 223,-476 217,-476"/>
<text text-anchor="middle" x="137" y="-462" font-family="Helvetica,sans-Serif" font-size="10.00">② Lexicon &#160;(initial tagger)</text>
<text text-anchor="middle" x="137" y="-451" font-family="Helvetica,sans-Serif" font-size="10.00">word → most&#45;frequent POS tag</text>
<text text-anchor="middle" x="137" y="-440" font-family="Helvetica,sans-Serif" font-size="10.00">suffix n&#45;grams &#160;· &#160;OOV heuristics</text>
</g>
<!-- T1&#45;&gt;T2 -->
<g id="edge1" class="edge">
<title>T1&#45;&gt;T2</title>
<path fill="none" stroke="#534ab7" d="M137,-526.74C137,-514.46 137,-497.66 137,-483.35"/>
<polygon fill="#534ab7" stroke="#534ab7" points="139.45,-483.14 137,-476.14 134.55,-483.14 139.45,-483.14"/>
</g>
<!-- T3 -->
<g id="node3" class="node">
<title>T3</title>
<path fill="#cecbf6" stroke="#534ab7" d="M229,-370C229,-370 45,-370 45,-370 39,-370 33,-364 33,-358 33,-358 33,-337 33,-337 33,-331 39,-325 45,-325 45,-325 229,-325 229,-325 235,-325 241,-331 241,-337 241,-337 241,-358 241,-358 241,-364 235,-370 229,-370"/>
<text text-anchor="middle" x="137" y="-356" font-family="Helvetica,sans-Serif" font-size="10.00">③ Object dictionary</text>
<text text-anchor="middle" x="137" y="-345" font-family="Helvetica,sans-Serif" font-size="10.00">initTag → goldTag → [context vectors]</text>
<text text-anchor="middle" x="137" y="-334" font-family="Helvetica,sans-Serif" font-size="10.00">16&#45;slot feature vector per token</text>
</g>
<!-- T2&#45;&gt;T3 -->
<g id="edge2" class="edge">
<title>T2&#45;&gt;T3</title>
<path fill="none" stroke="#534ab7" d="M137,-430.95C137,-415.33 137,-394.06 137,-377.03"/>
<polygon fill="#534ab7" stroke="#534ab7" points="139.45,-377.02 137,-370.02 134.55,-377.02 139.45,-377.02"/>
<text text-anchor="middle" x="162" y="-403.8" font-family="Helvetica,sans-Serif" font-size="9.00"> initial tags</text>
</g>
<!-- T4 -->
<g id="node4" class="node">
<title>T4</title>
<path fill="#afa9ec" stroke="#3c3489" d="M225.5,-264C225.5,-264 48.5,-264 48.5,-264 42.5,-264 36.5,-258 36.5,-252 36.5,-252 36.5,-220 36.5,-220 36.5,-214 42.5,-208 48.5,-208 48.5,-208 225.5,-208 225.5,-208 231.5,-208 237.5,-214 237.5,-220 237.5,-220 237.5,-252 237.5,-252 237.5,-258 231.5,-264 225.5,-264"/>
<text text-anchor="middle" x="137" y="-250" font-family="Helvetica,sans-Serif" font-size="10.00" fill="#26215c">④ SCRDRLearner &#160;(parallel workers)</text>
<text text-anchor="middle" x="137" y="-239" font-family="Helvetica,sans-Serif" font-size="10.00" fill="#26215c">one worker per initial tag</text>
<text text-anchor="middle" x="137" y="-228" font-family="Helvetica,sans-Serif" font-size="10.00" fill="#26215c">net score = |wrong| − |correct|</text>
<text text-anchor="middle" x="137" y="-217" font-family="Helvetica,sans-Serif" font-size="10.00" fill="#26215c">inverted index + live&#45;counts</text>
</g>
<!-- T3&#45;&gt;T4 -->
<g id="edge3" class="edge">
<title>T3&#45;&gt;T4</title>
<path fill="none" stroke="#3c3489" d="M137,-324.87C137,-309.6 137,-288.82 137,-271.31"/>
<polygon fill="#3c3489" stroke="#3c3489" points="139.45,-271.02 137,-264.02 134.55,-271.02 139.45,-271.02"/>
<text text-anchor="middle" x="184.5" y="-286.8" font-family="Helvetica,sans-Serif" font-size="9.00"> correction examples</text>
</g>
<!-- T5 -->
<g id="node5" class="node">
<title>T5</title>
<path fill="#afa9ec" stroke="#3c3489" d="M212.5,-158C212.5,-158 61.5,-158 61.5,-158 55.5,-158 49.5,-152 49.5,-146 49.5,-146 49.5,-114 49.5,-114 49.5,-108 55.5,-102 61.5,-102 61.5,-102 212.5,-102 212.5,-102 218.5,-102 224.5,-108 224.5,-114 224.5,-114 224.5,-146 224.5,-146 224.5,-152 218.5,-158 212.5,-158"/>
<text text-anchor="middle" x="137" y="-144" font-family="Helvetica,sans-Serif" font-size="10.00" fill="#26215c">⑤ SCRDR exception tree</text>
<text text-anchor="middle" x="137" y="-133" font-family="Helvetica,sans-Serif" font-size="10.00" fill="#26215c">root → per&#45;tag nodes (depth 1)</text>
<text text-anchor="middle" x="137" y="-122" font-family="Helvetica,sans-Serif" font-size="10.00" fill="#26215c">except_child: condition fires</text>
<text text-anchor="middle" x="137" y="-111" font-family="Helvetica,sans-Serif" font-size="10.00" fill="#26215c">else_child: &#160;&#160;condition fails</text>
</g>
<!-- T4&#45;&gt;T5 -->
<g id="edge4" class="edge">
<title>T4&#45;&gt;T5</title>
<path fill="none" stroke="#3c3489" d="M137,-207.95C137,-194.93 137,-179.18 137,-165.33"/>
<polygon fill="#3c3489" stroke="#3c3489" points="139.45,-165.28 137,-158.28 134.55,-165.28 139.45,-165.28"/>
<text text-anchor="middle" x="181" y="-180.8" font-family="Helvetica,sans-Serif" font-size="9.00"> assemble subtrees</text>
</g>
<!-- T6 -->
<g id="node6" class="node">
<title>T6</title>
<path fill="#e8e4fa" stroke="#7f77dd" d="M245.5,-52C245.5,-52 28.5,-52 28.5,-52 22.5,-52 16.5,-46 16.5,-40 16.5,-40 16.5,-28 16.5,-28 16.5,-22 22.5,-16 28.5,-16 28.5,-16 245.5,-16 245.5,-16 251.5,-16 257.5,-22 257.5,-28 257.5,-28 257.5,-40 257.5,-40 257.5,-46 251.5,-52 245.5,-52"/>
<text text-anchor="middle" x="137" y="-37" font-family="Helvetica,sans-Serif" font-size="10.00">⑥ Model files</text>
<text text-anchor="middle" x="137" y="-26" font-family="Helvetica,sans-Serif" font-size="10.00">.pkl (binary) &#160;· &#160;.rdr (human&#45;readable) &#160;· &#160;.lex</text>
</g>
<!-- T5&#45;&gt;T6 -->
<g id="edge5" class="edge">
<title>T5&#45;&gt;T6</title>
<path fill="none" stroke="#534ab7" d="M137,-101.81C137,-88.39 137,-72.34 137,-59.33"/>
<polygon fill="#534ab7" stroke="#534ab7" points="139.45,-59.07 137,-52.07 134.55,-59.07 139.45,-59.07"/>
<text text-anchor="middle" x="149" y="-74.8" font-family="Helvetica,sans-Serif" font-size="9.00"> save</text>
</g>
<!-- I1 -->
<g id="node7" class="node">
<title>I1</title>
<path fill="#d6f0e7" stroke="#1d9e75" d="M476.5,-563C476.5,-563 355.5,-563 355.5,-563 349.5,-563 343.5,-557 343.5,-551 343.5,-551 343.5,-539 343.5,-539 343.5,-533 349.5,-527 355.5,-527 355.5,-527 476.5,-527 476.5,-527 482.5,-527 488.5,-533 488.5,-539 488.5,-539 488.5,-551 488.5,-551 488.5,-557 482.5,-563 476.5,-563"/>
<text text-anchor="middle" x="416" y="-548" font-family="Helvetica,sans-Serif" font-size="10.00">① Load model + lexicon</text>
<text text-anchor="middle" x="416" y="-537" font-family="Helvetica,sans-Serif" font-size="10.00">.pkl or .rdr &#160;+ &#160;.lex</text>
</g>
<!-- T6&#45;&gt;I1 -->
<g id="edge10" class="edge">
<title>T6&#45;&gt;I1</title>
<path fill="none" stroke="#666666" stroke-dasharray="5,2" d="M257.55,-34.87C368.47,-37.62 521.43,-49.67 560,-94 671.92,-222.61 620.57,-334.81 525,-476 510.84,-496.92 487.87,-512.64 466.65,-523.67"/>
<polygon fill="#666666" stroke="#666666" points="465.29,-521.61 460.14,-526.94 467.49,-525.99 465.29,-521.61"/>
<text text-anchor="middle" x="645" y="-286.8" font-family="Helvetica,sans-Serif" font-size="9.00" fill="#666666"> save / load</text>
</g>
<!-- I2 -->
<g id="node8" class="node">
<title>I2</title>
<path fill="#9fe1cb" stroke="#0f6e56" d="M498.5,-476C498.5,-476 333.5,-476 333.5,-476 327.5,-476 321.5,-470 321.5,-464 321.5,-464 321.5,-443 321.5,-443 321.5,-437 327.5,-431 333.5,-431 333.5,-431 498.5,-431 498.5,-431 504.5,-431 510.5,-437 510.5,-443 510.5,-443 510.5,-464 510.5,-464 510.5,-470 504.5,-476 498.5,-476"/>
<text text-anchor="middle" x="416" y="-462" font-family="Helvetica,sans-Serif" font-size="10.00">② Initial tagging &#160;(Lexicon)</text>
<text text-anchor="middle" x="416" y="-451" font-family="Helvetica,sans-Serif" font-size="10.00">word → most&#45;frequent POS tag</text>
<text text-anchor="middle" x="416" y="-440" font-family="Helvetica,sans-Serif" font-size="10.00">suffix / capital / number fallbacks</text>
</g>
<!-- I1&#45;&gt;I2 -->
<g id="edge6" class="edge">
<title>I1&#45;&gt;I2</title>
<path fill="none" stroke="#0f6e56" d="M416,-526.74C416,-514.46 416,-497.66 416,-483.35"/>
<polygon fill="#0f6e56" stroke="#0f6e56" points="418.45,-483.14 416,-476.14 413.55,-483.14 418.45,-483.14"/>
</g>
<!-- I3 -->
<g id="node9" class="node">
<title>I3</title>
<path fill="#9fe1cb" stroke="#0f6e56" d="M515,-381C515,-381 317,-381 317,-381 311,-381 305,-375 305,-369 305,-369 305,-326 305,-326 305,-320 311,-314 317,-314 317,-314 515,-314 515,-314 521,-314 527,-320 527,-326 527,-326 527,-369 527,-369 527,-375 521,-381 515,-381"/>
<text text-anchor="middle" x="416" y="-367" font-family="Helvetica,sans-Serif" font-size="10.00">③ RDR tree traversal &#160;(left→right)</text>
<text text-anchor="middle" x="416" y="-356" font-family="Helvetica,sans-Serif" font-size="10.00">build 16&#45;slot context vector</text>
<text text-anchor="middle" x="416" y="-345" font-family="Helvetica,sans-Serif" font-size="10.00">if fires → except_child &#160;else → else_child</text>
<text text-anchor="middle" x="416" y="-334" font-family="Helvetica,sans-Serif" font-size="10.00">return last&#45;fired node&#39;s tag</text>
<text text-anchor="middle" x="416" y="-323" font-family="Helvetica,sans-Serif" font-size="10.00">update running tags for next token</text>
</g>
<!-- I2&#45;&gt;I3 -->
<g id="edge7" class="edge">
<title>I2&#45;&gt;I3</title>
<path fill="none" stroke="#0f6e56" d="M416,-430.95C416,-418.58 416,-402.65 416,-388.1"/>
<polygon fill="#0f6e56" stroke="#0f6e56" points="418.45,-388.09 416,-381.09 413.55,-388.09 418.45,-388.09"/>
<text text-anchor="middle" x="455" y="-403.8" font-family="Helvetica,sans-Serif" font-size="9.00"> word/tag strings</text>
</g>
<!-- I4 -->
<g id="node10" class="node">
<title>I4</title>
<path fill="#d6f0e7" stroke="#1d9e75" d="M491,-254C491,-254 341,-254 341,-254 335,-254 329,-248 329,-242 329,-242 329,-230 329,-230 329,-224 335,-218 341,-218 341,-218 491,-218 491,-218 497,-218 503,-224 503,-230 503,-230 503,-242 503,-242 503,-248 497,-254 491,-254"/>
<text text-anchor="middle" x="416" y="-239" font-family="Helvetica,sans-Serif" font-size="10.00">④ Write hypothesis &#160;(.hyp)</text>
<text text-anchor="middle" x="416" y="-228" font-family="Helvetica,sans-Serif" font-size="10.00">word/PRED_TAG &#160;per sentence</text>
</g>
<!-- I3&#45;&gt;I4 -->
<g id="edge8" class="edge">
<title>I3&#45;&gt;I4</title>
<path fill="none" stroke="#1d9e75" d="M416,-313.94C416,-297.04 416,-276.74 416,-261.24"/>
<polygon fill="#1d9e75" stroke="#1d9e75" points="418.45,-261.05 416,-254.05 413.55,-261.05 418.45,-261.05"/>
<text text-anchor="middle" x="451" y="-286.8" font-family="Helvetica,sans-Serif" font-size="9.00"> predicted tags</text>
</g>
<!-- I5 -->
<g id="node11" class="node">
<title>I5</title>
<path fill="#9fe1cb" stroke="#0f6e56" d="M533,-158C533,-158 299,-158 299,-158 293,-158 287,-152 287,-146 287,-146 287,-114 287,-114 287,-108 293,-102 299,-102 299,-102 533,-102 533,-102 539,-102 545,-108 545,-114 545,-114 545,-146 545,-146 545,-152 539,-158 533,-158"/>
<text text-anchor="middle" x="416" y="-144" font-family="Helvetica,sans-Serif" font-size="10.00">⑤ Evaluation</text>
<text text-anchor="middle" x="416" y="-133" font-family="Helvetica,sans-Serif" font-size="10.00">per&#45;tag P / R / F1</text>
<text text-anchor="middle" x="416" y="-122" font-family="Helvetica,sans-Serif" font-size="10.00">Macro · Micro · Weighted averages</text>
<text text-anchor="middle" x="416" y="-111" font-family="Helvetica,sans-Serif" font-size="10.00">Known / OOV accuracy &#160;· &#160;confusion matrix PNG</text>
</g>
<!-- I4&#45;&gt;I5 -->
<g id="edge9" class="edge">
<title>I4&#45;&gt;I5</title>
<path fill="none" stroke="#1d9e75" d="M416,-217.83C416,-203.69 416,-183.2 416,-165.68"/>
<polygon fill="#1d9e75" stroke="#1d9e75" points="418.45,-165.38 416,-158.38 413.55,-165.38 418.45,-165.38"/>
<text text-anchor="middle" x="444.5" y="-180.8" font-family="Helvetica,sans-Serif" font-size="9.00"> (test mode)</text>
</g>
<!-- C1 -->
<g id="node12" class="node">
<title>C1</title>
<path fill="#f5c4b3" stroke="#d85a30" d="M1179.5,-573C1179.5,-573 988.5,-573 988.5,-573 982.5,-573 976.5,-567 976.5,-561 976.5,-561 976.5,-529 976.5,-529 976.5,-523 982.5,-517 988.5,-517 988.5,-517 1179.5,-517 1179.5,-517 1185.5,-517 1191.5,-523 1191.5,-529 1191.5,-529 1191.5,-561 1191.5,-561 1191.5,-567 1185.5,-573 1179.5,-573"/>
<text text-anchor="middle" x="1084" y="-559" font-family="Helvetica,sans-Serif" font-size="10.00">Context vector &#160;(16 slots)</text>
<text text-anchor="middle" x="1084" y="-548" font-family="Helvetica,sans-Serif" font-size="10.00">prevWord2/1 &#160;· &#160;word &#160;· &#160;nextWord1/2</text>
<text text-anchor="middle" x="1084" y="-537" font-family="Helvetica,sans-Serif" font-size="10.00">prevTag2/1 &#160;· &#160;tag &#160;· &#160;nextTag1/2</text>
<text text-anchor="middle" x="1084" y="-526" font-family="Helvetica,sans-Serif" font-size="10.00">suffixL2/3/4 &#160;· &#160;prefixL2/3 &#160;· &#160;wordShape</text>
</g>
<!-- C1&#45;&gt;T3 -->
<g id="edge11" class="edge">
<title>C1&#45;&gt;T3</title>
<path fill="none" stroke="#d85a30" stroke-dasharray="5,2" d="M996.47,-516.97C984.95,-513.98 973.24,-511.22 962,-509 831.27,-483.2 787.41,-526.26 664,-476 613.86,-455.58 618.58,-420.32 568,-401 505.37,-377.09 333.23,-391.39 267,-381 251.85,-378.62 235.89,-375.32 220.53,-371.71"/>
<polygon fill="#d85a30" stroke="#d85a30" points="220.9,-369.28 213.52,-370.04 219.76,-374.05 220.9,-369.28"/>
<text text-anchor="middle" x="694.5" y="-451.3" font-family="Helvetica,sans-Serif" font-size="9.00" fill="#993c1d">build context</text>
</g>
<!-- C1&#45;&gt;I3 -->
<g id="edge14" class="edge">
<title>C1&#45;&gt;I3</title>
<path fill="none" stroke="#d85a30" stroke-dasharray="5,2" d="M1002.9,-516.92C912.06,-486.97 760.22,-438.06 628,-401 597.71,-392.51 564.78,-384 534.11,-376.39"/>
<polygon fill="#d85a30" stroke="#d85a30" points="534.57,-373.98 527.19,-374.68 533.4,-378.74 534.57,-373.98"/>
<text text-anchor="middle" x="903.5" y="-451.3" font-family="Helvetica,sans-Serif" font-size="9.00" fill="#993c1d">build context</text>
</g>
<!-- C2 -->
<g id="node13" class="node">
<title>C2</title>
<path fill="#f5c4b3" stroke="#d85a30" d="M935.5,-573C935.5,-573 822.5,-573 822.5,-573 816.5,-573 810.5,-567 810.5,-561 810.5,-561 810.5,-529 810.5,-529 810.5,-523 816.5,-517 822.5,-517 822.5,-517 935.5,-517 935.5,-517 941.5,-517 947.5,-523 947.5,-529 947.5,-529 947.5,-561 947.5,-561 947.5,-567 941.5,-573 935.5,-573"/>
<text text-anchor="middle" x="879" y="-559" font-family="Helvetica,sans-Serif" font-size="10.00">Rule templates &#160;(31+)</text>
<text text-anchor="middle" x="879" y="-548" font-family="Helvetica,sans-Serif" font-size="10.00">15 single&#45;feature</text>
<text text-anchor="middle" x="879" y="-537" font-family="Helvetica,sans-Serif" font-size="10.00">10 two&#45;feature pairs</text>
<text text-anchor="middle" x="879" y="-526" font-family="Helvetica,sans-Serif" font-size="10.00">8 &#160;three&#45;feature triples</text>
</g>
<!-- C2&#45;&gt;T4 -->
<g id="edge12" class="edge">
<title>C2&#45;&gt;T4</title>
<path fill="none" stroke="#d85a30" stroke-dasharray="5,2" d="M873.59,-516.95C867.42,-492.09 855.19,-455.48 833,-431 824.99,-422.16 748.46,-386.73 738,-381 661.72,-339.18 651.3,-309.08 568,-284 439.62,-245.35 399.84,-282.12 267,-264 259.66,-263 252.11,-261.82 244.52,-260.53"/>
<polygon fill="#d85a30" stroke="#d85a30" points="244.86,-258.1 237.54,-259.32 244.02,-262.93 244.86,-258.1"/>
<text text-anchor="middle" x="833" y="-403.8" font-family="Helvetica,sans-Serif" font-size="9.00">candidate rules</text>
</g>
<!-- C3 -->
<g id="node14" class="node">
<title>C3</title>
<path fill="#f5c4b3" stroke="#d85a30" d="M769,-573C769,-573 595,-573 595,-573 589,-573 583,-567 583,-561 583,-561 583,-529 583,-529 583,-523 589,-517 595,-517 595,-517 769,-517 769,-517 775,-517 781,-523 781,-529 781,-529 781,-561 781,-561 781,-567 775,-573 769,-573"/>
<text text-anchor="middle" x="682" y="-559" font-family="Helvetica,sans-Serif" font-size="10.00">Rule &#160;(no eval / exec)</text>
<text text-anchor="middle" x="682" y="-548" font-family="Helvetica,sans-Serif" font-size="10.00">sorted (slot, value) constraint tuple</text>
<text text-anchor="middle" x="682" y="-537" font-family="Helvetica,sans-Serif" font-size="10.00">satisfied_by() = equality loop</text>
<text text-anchor="middle" x="682" y="-526" font-family="Helvetica,sans-Serif" font-size="10.00">hashable &#160;· &#160;serialisable</text>
</g>
<!-- C3&#45;&gt;T4 -->
<g id="edge13" class="edge">
<title>C3&#45;&gt;T4</title>
<path fill="none" stroke="#d85a30" stroke-dasharray="5,2" d="M769.56,-516.91C826.28,-499.15 890.01,-478.74 892,-476 903.76,-459.83 900.09,-449.29 892,-431 860.25,-359.23 846.86,-341.22 646,-284 564.89,-260.89 350.64,-274.83 267,-264 259.65,-263.05 252.09,-261.91 244.5,-260.65"/>
<polygon fill="#d85a30" stroke="#d85a30" points="244.84,-258.22 237.52,-259.45 244.01,-263.05 244.84,-258.22"/>
</g>
<!-- C3&#45;&gt;I3 -->
<g id="edge15" class="edge">
<title>C3&#45;&gt;I3</title>
<path fill="none" stroke="#d85a30" stroke-dasharray="5,2" d="M764.06,-516.98C774.73,-514.01 785.58,-511.25 796,-509 816.59,-504.56 876.08,-512.81 890,-497 919.63,-463.35 893.67,-429.42 859,-401 810.86,-361.53 648.48,-350.93 534.33,-348.51"/>
<polygon fill="#d85a30" stroke="#d85a30" points="534.28,-346.05 527.23,-348.36 534.18,-350.95 534.28,-346.05"/>
</g>
</g>
</svg>
